# xmcd
#
# Track frame offsets:
#	150
#	34477
#	55000
#	74370
#	94747
#	111727
#	135215
#	154825
#	177907
#	202675
#	221627
#	242547
#	261452
#	289045
#
# Disc length: 4031 seconds
#
# Revision: 25
# Processed by: cddbd v1.5.2PL0 Copyright (c) Steve Scherf et al.
# Submitted via: EasyCDDAExtractor 15.3.0.1
#
DISCID=ce0fbd0e
DTITLE=Celine Dion - Falling Into You
DYEAR=1996
DGENRE=Pop
TTITLE0=It's All Coming Back To Me Now
TTITLE1=Because You Loved Me (Theme From ''Up Close and Personal'')
TTITLE2=Falling Into You
TTITLE3=Make You Happy
TTITLE4=Seduces Me
TTITLE5=All By Myself
TTITLE6=Declaration Of Love
TTITLE7=Dreamin' Of You
TTITLE8=I Love You
TTITLE9=If That's What It Takes
TTITLE10=I Don't Know
TTITLE11=River Deep, Mountain High
TTITLE12=Call The Man
TTITLE13=Fly
EXTD=Executive Producers:\nVito Luprano and John Doelp
EXTT0=Written by Jim Steinman
EXTT1=Words and Music by Diane Warren
EXTT2=Words and Music by Billy Steinberg, Rick Nowels and Marie Claire D'Ubaldo
EXTT3=Written by Andy Marvel
EXTT4=Words:  Dan Hill\nMusic:  Dan Hill - John Sheard
EXTT5=Written by Eric Carmen and Sergei Rachmaninoff
EXTT6=Written by Michael Jay and Claude Gaudette
EXTT7=Words and Music by Aldo Nova and Peter Barbeau
EXTT8=Words and Music by Aldo Nova
EXTT9=Jean-Jacques Goldman and Phil Galdston
EXTT10=Jean-Jacques Goldman and J Kapler and Phil Galdston\n
EXTT11=Written by Ellie Greenwich, Jeff Barry and Phil Spector
EXTT12=Written by Andy Hill and Peter Sinfield
EXTT13=Jean-Jacques Goldman and Phil Galdston\n
PLAYORDER=
